<?xml version="1.0" standalone="no"?><!DOCTYPE svg PUBLIC "-//W3C//DTD SVG 1.1//EN" "http://www.w3.org/Graphics/SVG/1.1/DTD/svg11.dtd"><svg t="1690342965008" class="icon" viewBox="0 0 1024 1024" version="1.1" xmlns="http://www.w3.org/2000/svg" p-id="2872" xmlns:xlink="http://www.w3.org/1999/xlink" width="200" height="200"><path d="M670.3 368.8c10.2 0 20.4 0.7 30.5 1.9-27.4-127-163.7-221.3-319.5-221.3-173.9 0-316.5 118.1-316.5 268 0 86.6 47.4 157.6 126.7 212.7l-31.6 94.8 110.6-55.2c39.6 7.8 71.4 15.8 110.9 15.8 9.9 0 19.8-0.5 29.6-1.2-6.4-21.4-9.7-43.7-9.8-66 0-137.7 118.7-249.5 269.1-249.5z m-170.2-85.4c23.8 0 39.6 15.6 39.6 39.4 0 23.6-15.8 39.4-39.6 39.4-23.7 0-47.5-15.7-47.5-39.4 0-23.8 23.8-39.4 47.5-39.4z m-221.6 78.7c-23.7 0-47.7-15.7-47.7-39.4s23.9-39.4 47.7-39.4c23.7 0 39.5 15.6 39.5 39.4 0.1 23.7-15.7 39.4-39.5 39.4z m680.7 252.3c0-126-126.6-228.6-268.8-228.6-150.6 0-269.2 102.7-269.2 228.6 0 126.2 118.6 228.7 269.2 228.7 31.5 0 63.3-7.9 95-15.9l86.8 47.3-23.8-78.7c63.5-47.4 110.8-110.3 110.8-181.4zM603.1 575c-15.8 0-31.7-15.6-31.7-31.6 0-15.7 15.9-31.5 31.7-31.5 23.9 0 39.6 15.8 39.6 31.5 0 16-15.7 31.6-39.6 31.6z m174.1 0c-15.6 0-31.4-15.6-31.4-31.6 0-15.7 15.8-31.5 31.4-31.5 23.7 0 39.6 15.8 39.6 31.5 0 16-15.9 31.6-39.6 31.6z m0 0" fill="#09BB07" p-id="2873"></path></svg>